<svg xmlns="http://www.w3.org/2000/svg" viewBox="0 0 500 500"><g id="freepik--background-simple--inject-1"><path d="M19,309S34,391.78,110,431.73,280.56,454,357.35,441.67s128.59-70,127.43-138.9-62.15-75.1-105-143.92S336,64.36,262.38,33,88.71,54.42,46,147.25,19,309,19,309Z" style="fill:#985EFF"></path><path d="M19,309S34,391.78,110,431.73,280.56,454,357.35,441.67s128.59-70,127.43-138.9-62.15-75.1-105-143.92S336,64.36,262.38,33,88.71,54.42,46,147.25,19,309,19,309Z" style="fill:#fff;opacity:0.7000000000000001"></path></g><g id="freepik--Character--inject-1"><path d="M98.53,212.78s15.34,36.22,22.1,54.63,6.13,23.94,6.13,23.94L74,289.51s-4.3-23.32,4.29-43.58A129.23,129.23,0,0,1,98.53,212.78Z" style="fill:#263238;stroke:#263238;stroke-linecap:round;stroke-linejoin:round"></path><path d="M111.34,275.89c1.73,7.06,2.77,12.05,3.4,15.59L324.4,302l69.92,1,44.93.5s-58.43-34.9-68.64-48-9.73-24.81-14.6-32.11S330.23,199,326.83,189.79s-3.89-10.7-3.89-10.7l-219.38,8.27s-18,12.16-9.25,42.32C94.31,229.68,106,254,111.34,275.89Z" style="fill:#fff;stroke:#263238;stroke-linecap:round;stroke-linejoin:round"></path><polyline points="118 291 383.79 292.67 383.79 303.26" style="opacity:0.4"></polyline><path d="M159.42,239.54a110.87,110.87,0,0,1,14,45.76" style="fill:none;stroke:#263238;stroke-linecap:round;stroke-linejoin:round"></path><polygon points="99.38 224.93 341.23 202.37 322.94 179.09 103.56 187.36 99.38 224.93" style="opacity:0.4"></polygon><path d="M481.77,220.79c-19-43.35-41.65-47.2-41.65-47.2l-121.41,4.88a19.27,19.27,0,0,0-.24,2.1,49,49,0,0,0,.39,9.39c.16,16.57,2.63,57,22.1,73.25a55.56,55.56,0,0,0,41.6,12.62,14.88,14.88,0,0,1,1.19,5.07c.54,12.46.54,21.68.54,21.68l93.77,1.08S500.73,264.15,481.77,220.79Zm-149.93,4.89c.71,1.25,1.45,2.52,2.24,3.82,10.64,17.48,28.21,32,42.16,41.54C357.77,266.83,331.53,255.59,331.84,225.68Z" style="fill:#263238;stroke:#263238;stroke-linecap:round;stroke-linejoin:round"></path><path d="M347.7,199.05C361.24,214.92,384.06,236,416,246.31c55.12,17.86,69.1,14,69.1,14" style="fill:none;stroke:#7d7d7d;stroke-linecap:round;stroke-linejoin:round"></path><path d="M332.93,178.76a121.32,121.32,0,0,0,8.19,12.1" style="fill:none;stroke:#7d7d7d;stroke-linecap:round;stroke-linejoin:round"></path><path d="M465.71,253.31q4.85,1.66,10.09,3.1" style="fill:none;stroke:#7d7d7d;stroke-linecap:round;stroke-linejoin:round"></path><path d="M389.62,181.87s11.61,43.39,64.11,66.73" style="fill:none;stroke:#7d7d7d;stroke-linecap:round;stroke-linejoin:round"></path><path d="M52.92,221.84s-14,25.37-14,46.74A81.36,81.36,0,0,0,41,287.77l40.63,2c-6.32-23.46,4-54.17,31.73-74.31,31.72-23,40.4-29.71,40.4-29.71l-94.15,4s-7,4.34-19.7,25-7.34,53.75-7.34,53.75a110,110,0,0,1,6-25.71A51,51,0,0,1,52.92,221.84Z" style="fill:#263238;stroke:#263238;stroke-linecap:round;stroke-linejoin:round"></path><path d="M92.23,233.89A80.88,80.88,0,0,0,79,282" style="fill:none;stroke:#7d7d7d;stroke-linecap:round;stroke-linejoin:round"></path><path d="M52.45,261.64a60.52,60.52,0,0,0-1.37,12.62" style="fill:none;stroke:#7d7d7d;stroke-linecap:round;stroke-linejoin:round"></path><path d="M101.55,193.51s-33.79,25-46.07,57.85" style="fill:none;stroke:#7d7d7d;stroke-linecap:round;stroke-linejoin:round"></path><path d="M173.44,185.12s-.67,16.36-20.36,27.71-28.71,7-47.74,14.35-25,20.37-25,20.37,21-22.7,57.09-22.37,69.1-22,80.12-41.73Z" style="fill:#263238;stroke:#263238;stroke-linecap:round;stroke-linejoin:round"></path><path d="M222.52,203.15s-5.34,7.68-5.34,12-.67,11.68-.67,11.68,7-3.67,19.69-11.68,31.05-24.71,46.08-27.38,28,3.34,33.05,6.68,8.68,6,8.68,6-8.68-16-23.37-20.37l-44.74,1.34S238.88,183.78,222.52,203.15Z" style="fill:#263238;stroke:#263238;stroke-linecap:round;stroke-linejoin:round"></path><path d="M216.17,212.16l-2.33,15.69S209.83,222.51,216.17,212.16Z" style="fill:#263238;stroke:#263238;stroke-linecap:round;stroke-linejoin:round"></path><path d="M156.08,231.52s-3.34-10.35-11.68-16.69S111,200.48,103.33,204.48s-6.67,17-6.67,17,3-7.35,10-8.35,22,9.35,32.05,15S156.08,231.52,156.08,231.52Z" style="fill:#263238;stroke:#263238;stroke-linecap:round;stroke-linejoin:round"></path><path d="M154.75,223.51l3.34,8.35S160.76,227.18,154.75,223.51Z" style="fill:#263238;stroke:#263238;stroke-linecap:round;stroke-linejoin:round"></path><path d="M277.27,223.85a39.56,39.56,0,0,0-21.71,1.69A22.69,22.69,0,1,0,294.83,230C290.78,228.45,287.75,226.08,277.27,223.85Z" style="fill:#985EFF;stroke:#263238;stroke-linecap:round;stroke-linejoin:round"></path><circle cx="273.93" cy="238.87" r="14.02" style="fill:#263238;stroke:#263238;stroke-linecap:round;stroke-linejoin:round"></circle><circle cx="286.84" cy="239.83" r="5.58" style="fill:#fff"></circle><path d="M232.2,264.24a53.71,53.71,0,0,1,11.68-32.38c15.39-19.55,34.72-11.69,41.4-8.68S304,235.53,304,235.53l3,.33s-4.1,5.1-10.35,14c-7,10-11,16.35-34.38,17.69" style="fill:none;stroke:#263238;stroke-linecap:round;stroke-linejoin:round"></path><path d="M233.2,265.91s1.34,8,3.34,5,3-3.67,3-3.67l6.35-.34" style="fill:none;stroke:#263238;stroke-linecap:round;stroke-linejoin:round"></path><path d="M310.32,232.19c-2,.34-5.68-.67-5.68-.67s5-2.33,6.35-4,1.67-5.34,1.67-5.34-3,3.67-7,4.34-10.34-.67-10.34-.67,5.67-2.67,6.67-3.67,3-5.68,3-5.68-6.68,4.67-11.69,5.68-4.34-3-21.7-4.34-33.38,12-38.39,39.06c0,0,8-27.38,28-29.38s32.05,4.67,38.06,7c.56.21,1.07.39,1.57.55A38.57,38.57,0,0,1,296,251.22c-3.57,6-6.45,8.67-7.81,9.74,3.09-2.24,13.6-10.49,16.16-20.42a22.61,22.61,0,0,0,.79-4.67c2.26,0,3.9-.82,5.89-2a17.62,17.62,0,0,0,5.34-5.34S312.32,231.86,310.32,232.19Z" style="fill:#263238;stroke:#263238;stroke-linecap:round;stroke-linejoin:round"></path><path d="M288.15,261c-.55.4-.87.61-.87.61A7.27,7.27,0,0,0,288.15,261Z" style="fill:#263238;stroke:#263238;stroke-linecap:round;stroke-linejoin:round"></path><path d="M238.88,237.87s5-16.36,18.36-21.7,26.37,0,26.37,0" style="fill:none;stroke:#263238;stroke-linecap:round;stroke-linejoin:round"></path><path d="M168.74,270.54s-6.81-18-16.54-27.24-22.38-6.81-27.73,2.92-5.35,16.53-5.35,16.53,2.43,5.84,13.14,13.14,22.86,4.86,28.7,2.92" style="fill:none;stroke:#263238;stroke-linecap:round;stroke-linejoin:round"></path><path d="M141.45,238.94a20.85,20.85,0,1,0,27.21,31.51C159.86,249.44,147,241.5,141.45,238.94Z" style="fill:#985EFF;stroke:#263238;stroke-linecap:round;stroke-linejoin:round"></path><path d="M150.93,245.11a12.51,12.51,0,1,0,14.76,19A62.09,62.09,0,0,0,150.93,245.11Z" style="fill:#263238;stroke:#263238;stroke-linecap:round;stroke-linejoin:round"></path><path d="M142.47,236.49c-12.65-2.92-14.59,2.43-19,3.4a18.49,18.49,0,0,1-8.76-.48s.49,3.4,2.44,4.37a20.39,20.39,0,0,0,4.86,1.46s-3.89,2.44-7.3,2.44a12.33,12.33,0,0,1-5.83-1.46s2.92,4.37,4.86,5.35a9.48,9.48,0,0,0,4.87.48s-1,2.92-5.84,2.92a18.73,18.73,0,0,1-7.78-1.46s6.32,4.38,8.75,5.84a10.24,10.24,0,0,0,3.15,1.19,13.67,13.67,0,0,1-4.31,1.64l-2.23.32s4.45,3.49,9.85,7a53.38,53.38,0,0,0,9.84,5.08s-7.82-5.63-10.6-11.06c-.12-.25-.24-.51-.35-.76l.93-5.26c1.66-5.25,5.64-15.13,12.69-17.6,9.73-3.4,22.86,7.3,32.59,23.84C165.33,263.73,155.12,239.41,142.47,236.49Z" style="fill:#263238;stroke:#263238;stroke-linecap:round;stroke-linejoin:round"></path><path d="M163.09,256.23s-7.34-14.36-14.69-21.37-17.83-4.36-21.36.34" style="fill:none;stroke:#263238;stroke-linecap:round;stroke-linejoin:round"></path><path d="M164,265.39a3.82,3.82,0,1,1-3.82-3.82A3.82,3.82,0,0,1,164,265.39Z" style="fill:#fff"></path><polyline points="384.29 302.58 324.39 302.03 114.74 291.48"></polyline></g><g id="freepik--Blinds--inject-1"><polyline points="25 287.02 333.24 302.32 487.78 304.39" style="fill:none;stroke:#263238;stroke-linecap:round;stroke-linejoin:round"></polyline><line x1="27.67" y1="190.76" x2="471.3" y2="172.28" style="fill:none;stroke:#263238;stroke-linecap:round;stroke-linejoin:round"></line><line x1="27.25" y1="135.36" x2="474.55" y2="119.04" style="fill:none;stroke:#263238;stroke-linecap:round;stroke-linejoin:round"></line><line x1="28.83" y1="67.22" x2="476.78" y2="72.98" style="fill:none;stroke:#263238;stroke-linecap:round;stroke-linejoin:round"></line><polyline points="33 345.33 391 346.67 487.67 344.67" style="fill:none;stroke:#263238;stroke-linecap:round;stroke-linejoin:round"></polyline><path d="M41.14,345S191,356.67,256.33,354s153.43-7.4,153.43-7.4L313,346H168.33Z" style="fill:#263238"></path><path d="M37,412s160.67,11.33,251.33,6S485,406.67,485,406.67" style="fill:none;stroke:#263238;stroke-linecap:round;stroke-linejoin:round"></path></g><g id="freepik--Hand--inject-1"><path d="M360,252s46.5,16.61,56.47,21.59,19,29.95,19,29.95l-85.8-1.05S327.84,274.71,360,252Z" style="fill:#fff;stroke:#263238;stroke-linecap:round;stroke-linejoin:round"></path><path d="M416.5,266s15,11.52,19.84,13.44,13.12,19.85,18.88,27.53,11.53,10.88,8.64,15-10.88,7.68-20.48,2.56-12.8-20.48-14.72-21.76-9.28-8-10.88-11.2S412,265.63,416.5,266Z" style="fill:#fff;stroke:#263238;stroke-linecap:round;stroke-linejoin:round"></path><path d="M458.1,310.76s-11.84-5.44-11.52-1,9.28,8,11.84,9,7.37,1.92,5.76-.64A29.41,29.41,0,0,0,458.1,310.76Z" style="fill:#985EFF;stroke:#263238;stroke-linecap:round;stroke-linejoin:round"></path><path d="M324.4,302a38.67,38.67,0,0,1-16.72-13.35c-7-9.93-9-12.49-15.68-7.69-5.45,3.9-3.27,15.16-2.25,19.29Z" style="fill:#fff;stroke:#263238;stroke-linecap:round;stroke-linejoin:round"></path><path d="M394.73,254.43s2.56-5.12,7-5.12A15.15,15.15,0,0,1,415.22,257c3.2,5.76,1.28,16.32,5.12,31.37s1.28,23.36-3.2,30.72-10.24,16-13.12,17.6-7.37-.64-9-6.08-1-14.72,0-19.2,3.52-13.12,3.52-13.12a69.06,69.06,0,0,1-3.84-21.45s-3.52,0-3.52-6.08S393.77,256,394.73,254.43Z" style="fill:#fff;stroke:#263238;stroke-linecap:round;stroke-linejoin:round"></path><path d="M395.05,330.6c0-1.32-.64-5.76,3.2-9.28s6.73-5.12,9.29-3.52,7.36,3.52,5.76,6.72-5.12,9.6-7.68,11.2S395.37,339.56,395.05,330.6Z" style="fill:#985EFF;stroke:#263238;stroke-linecap:round;stroke-linejoin:round"></path><path d="M368.55,254.32s-1-12.69-11.26-12.69-14.4,2.56-15.36,7.68-9.61,29.44-8.33,35.53,11.53,34.88,12.17,40,10.88,11.52,17,5.76,2.24-17,2.24-21.76-2.24-24-2.24-24,4.22-3.76,4.54-15.6" style="fill:#fff;stroke:#263238;stroke-linecap:round;stroke-linejoin:round"></path><path d="M356.81,272.87a3.3,3.3,0,0,1,1.44,1.72" style="fill:none;stroke:#263238;stroke-linecap:round;stroke-linejoin:round"></path><path d="M338.08,273.63s1.6-4.16,10.57-3.2a28.19,28.19,0,0,1,4.63.86" style="fill:none;stroke:#263238;stroke-linecap:round;stroke-linejoin:round"></path><path d="M348,328.9s-2.61-6.95-1.74-11.59,6.38-6.37,11.59-5.5,7.25,10.14,7,15.64S354.33,337.3,348,328.9Z" style="fill:#985EFF;stroke:#263238;stroke-linecap:round;stroke-linejoin:round"></path><path d="M394.73,252.83s-1-8.32-4.8-10.56-16-4.48-19.2-.64-1.6,23.36-2.56,31,2.88,18.57,2.88,24.65a212.75,212.75,0,0,0,2.24,25c1,5.76,3.2,8,7.36,8.64s9-.64,10.24-3.2,4.16-17,4.16-27.2,0-21.19.34-29.2A168.94,168.94,0,0,0,394.73,252.83Z" style="fill:#fff;stroke:#263238;stroke-linecap:round;stroke-linejoin:round"></path><path d="M383.58,267.37a12.1,12.1,0,0,1,4.94,1.21" style="fill:none;stroke:#263238;stroke-linecap:round;stroke-linejoin:round"></path><path d="M370.73,274.27s3.27-5.8,9.28-6.72" style="fill:none;stroke:#263238;stroke-linecap:round;stroke-linejoin:round"></path><path d="M374.9,327.45a27.49,27.49,0,0,1,0-7.82c.58-4.93,2-12.46,10.14-12.46s5.74,12.48,5.8,16.52-.29,5.79-3.77,7.24S375.77,331.8,374.9,327.45Z" style="fill:#985EFF;stroke:#263238;stroke-linecap:round;stroke-linejoin:round"></path></g><g id="freepik--Leaves--inject-1"><path d="M480.66,184.26c-.21-.52-2.76-6.74-10-16.41,2.87-4.13,11.06-17.26,8.47-29.3-3.14-14.52-9.78-18-18.88-27s-14.37-14.48-14.37-14.48-3.17,18.37-1.27,30.13,11.53,18.89,15,23.49a92.65,92.65,0,0,1,6.68,11.63c-7.82-9.49-19.55-21.31-36.69-34a52.3,52.3,0,0,0,2-30.46c-4.25-17.65-14.46-24.13-23.46-33.48s-15-15.06-15-15.06.23,33.36,3.45,44.69c2,7,13.77,18.8,22.58,26.9-8.29-5.63-16.67-10.76-25.4-15.56l-2.18-.81a48.3,48.3,0,0,0-6-3.13c-.51-4-2.71-17.58-10.38-29.86C366.16,57,355,52.62,342.9,48.42a74.54,74.54,0,0,1-20.84-11.48s-2.73,19.69,7.12,31.69S346,83,357.2,87.35c7.1,2.76,16.68,8.15,22.75,11.73-11.76-4.4-32.45-9.63-62.91-8.65a52.32,52.32,0,0,0-17.38-25.09c-14.3-11.18-26.33-9.92-39.19-11.66s-21.12-2.47-21.12-2.47,20.91,26,30.48,32.87c5.88,4.23,22.47,6.17,34.41,7a320.48,320.48,0,0,0-38.71,5.27c-3.26-3.13-13.19-12-26.39-16.64-16.22-5.78-27.71-2.23-39.76,2a74.47,74.47,0,0,1-23.46,4s10.09,17.13,25.27,20.41,22.1.8,33.59-2.75a120.5,120.5,0,0,1,13.44-3.09c-6.81,1.66-13.24,3.39-19.45,5-10.42,2.79-20.26,5.43-30.25,7.36l-.36.07c-3.34-1.15-9.1-3.35-18.71-7.6-19-8.38-31.49-5.24-41.11-1.22s-40.58,14-40.58,14,17.63,18.16,42.7,16.05c20.28-1.71,48.29-13.77,58.23-18.31l.4-.07c10.09-2,20-4.6,30.46-7.41,9.7-2.6,20-5.35,31.33-7.78a45.5,45.5,0,0,0-15.51,15.24c-8.18,13.46-12.18,23.92-15.23,30.63s-4,8.38-4,8.38,8.64-2.35,19.47-6.46,18.7-15.35,21.33-26.08c2.08-8.5.71-19,0-22.95A317.62,317.62,0,0,1,305.75,94a29.62,29.62,0,0,0-11.22,6.09c-8.13,7.58-21.71,24.14-26.24,32.32A69.41,69.41,0,0,1,260,144.68s13,3,31.86-7.88c16.44-9.42,23.6-36.46,25.19-43.36a183.93,183.93,0,0,1,44.86,3.65A33.13,33.13,0,0,0,346.36,104c-13.53,10.68-19.13,24.32-24.52,32.43a74.58,74.58,0,0,1-12.19,13.89s25.72,3.47,44.9-8.73c.74-.47,1.44-1,2.13-1.52,4.65,3.2,12.52,7.19,24.46,9,18.74,2.83,41.16-13.91,46.69-18.33a205.67,205.67,0,0,1,34.76,31.89,33,33,0,0,0-18.36-5.42c-17.23,0-30.09,7.17-39.36,10.17a74.08,74.08,0,0,1-18.18,3.3s18,18.71,40.6,21.07c19.62,2,37.16-16.46,41.44-21.36,6.72,9.13,9.1,14.88,9.15,15ZM406,122c-11.08.89-32,5.42-40.64,9l-.8.32c7.12-11.12,8.74-25.31,9.11-31.1,10.91,3.44,16.33,6.91,16.45,7l2.33.89c9,5,17.58,10.25,26.12,16.09A29.62,29.62,0,0,0,406,122Z" style="fill:#985EFF"></path><path d="M222.3,363.69c-6.92,1.36-15.14,4.31-22.66,16.18-3.34,5.26-5.6,8.53-7.08,10.54-.33.15-.67.3-1,.43-4.13,1.75-8.35,3.29-12.69,4.81a36.41,36.41,0,0,0,8.9-7c7.3-7.57,6.53-21,6.53-21a50.44,50.44,0,0,1-14.69,6.61c-8.36,2.18-16.16,4.51-23.11,13.87a52.8,52.8,0,0,0-8.44,18.73,216.62,216.62,0,0,0-21.56,10.34c6-4.83,12.85-11,14.36-15.07,2.8-7.48,4.77-30,4.77-30s-4.37,3.52-10.95,9.35-13.83,9.64-17.66,21.32a35.51,35.51,0,0,0-.46,20.18,143.22,143.22,0,0,0-25.33,19.58,50.13,50.13,0,0,1,4-5.64c2.63-2.91,9.51-7.2,11.43-15s.79-20.41.79-20.41-3.86,3.43-10.49,9S85.65,418,82.74,427.62c-2.29,7.62,2,16.45,3.87,19.8-5.51,6.25-7.63,10.41-7.8,10.76l2.69,1.32a53.24,53.24,0,0,1,6.84-9.45c3.06,4,13.61,16.58,26.52,16.28,15.38-.36,28.55-12,28.55-12a50.56,50.56,0,0,1-12.09-3.22c-6.09-2.53-14.38-8.1-26-9a22.37,22.37,0,0,0-11.32,2,140.46,140.46,0,0,1,24.2-18.62c4,3.73,17.76,15.44,30.15,14.57,14.71-1,20.89-7.57,20.89-7.57A46.79,46.79,0,0,1,160,428.7c-5.63-2.89-19.51-7.09-26.94-8.29a18.09,18.09,0,0,0-6.8.34,215.23,215.23,0,0,1,22.16-10.82c1.27,2.74,4.34,8.67,8.47,12.45,5.52,5,14.18,8.41,21.82,6.64s13.39-3.7,13.39-3.7-1.17-.57-5.42-3.2-10.43-7-20.11-11.5a30.53,30.53,0,0,0-13-2.76c6.82-2.69,13.22-4.87,19.28-6.93,7-2.37,13.53-4.61,19.95-7.32.67-.29,1.36-.58,2.05-.89,8.51-1.48,26.58-5.16,37.68-11.31,14.89-8.25,18-25.11,18-25.11S229.23,362.33,222.3,363.69Z" style="fill:#985EFF"></path><path d="M95.39,336.3l1.12-1.93c6-6.25,18.31-19.95,23.57-31.49,7.08-15.49-.47-30.88-.47-30.88s-13.46,17.45-18.22,22.66-9.61,12.46-8.61,26.48c.45,6.21.57,10.18.58,12.68l-.55.95c-2.28,3.85-4.76,7.6-7.35,11.41a36.17,36.17,0,0,0,3-11c1.38-10.42-7.23-20.76-7.23-20.76a50.52,50.52,0,0,1-7.87,14C67.89,335.22,63,341.73,63,353.39a52.89,52.89,0,0,0,4.35,20.08,215.1,215.1,0,0,0-11.2,21.13c1.94-7.44,3.79-16.51,2.6-20.67-2.2-7.67-14-26.93-14-26.93s-1.42,5.43-3.25,14S36.1,377,40,388.66a35.45,35.45,0,0,0,11.62,16.51A142.83,142.83,0,0,0,42.85,436a49.28,49.28,0,0,1-.14-6.91c.38-3.9,3.37-11.44.25-18.89S31.47,393.3,31.47,393.3s-1.07,5-3.09,13.46S23.77,419.55,27.16,429c2.69,7.5,11.37,12.05,14.88,13.62-.71,8.31.05,12.91.12,13.29l3-.53A52.46,52.46,0,0,1,45,443.74c4.88,1.43,20.8,5.23,31-2.68,12.16-9.43,15.82-26.62,15.82-26.62A50.63,50.63,0,0,1,80.19,419c-6.41,1.58-16.38,2-26.28,8.22a22.37,22.37,0,0,0-7.9,8.27,140.15,140.15,0,0,1,8.38-29.3c5.46.6,23.45,1.86,32.9-6.2,11.22-9.58,12.3-18.51,12.3-18.51a47.32,47.32,0,0,1-9.7,2.48c-6.24,1-19.9,5.89-26.59,9.34A18.51,18.51,0,0,0,58,397.66a214.64,214.64,0,0,1,11.39-21.87c2.65,1.44,8.64,4.39,14.22,5,7.43.78,16.39-1.66,21.49-7.63s8.57-10.93,8.57-10.93-1.28.24-6.26.65-12.56.57-23,2.7a30.47,30.47,0,0,0-12.12,5.53c3.89-6.21,7.73-11.77,11.38-17C87.88,348,91.83,342.3,95.39,336.3Z" style="fill:#985EFF"></path></g></svg>