<svg id="visual" viewBox="0 0 1536 864" width="1536" height="864" xmlns="http://www.w3.org/2000/svg" xmlns:xlink="http://www.w3.org/1999/xlink" version="1.1"><rect x="0" y="0" width="1536" height="864" fill="#141414"></rect><defs><linearGradient id="grad1_0" x1="43.8%" y1="100%" x2="100%" y2="0%"><stop offset="14.444444444444446%" stop-color="#141414" stop-opacity="1"></stop><stop offset="85.55555555555554%" stop-color="#141414" stop-opacity="1"></stop></linearGradient></defs><defs><linearGradient id="grad2_0" x1="0%" y1="100%" x2="56.3%" y2="0%"><stop offset="14.444444444444446%" stop-color="#141414" stop-opacity="1"></stop><stop offset="85.55555555555554%" stop-color="#141414" stop-opacity="1"></stop></linearGradient></defs><g transform="translate(1536, 864)"><path d="M-432 0C-437 -51.5 -441.9 -102.9 -410.9 -133.5C-379.8 -164.1 -312.7 -173.8 -278.3 -202.2C-243.9 -230.6 -242.2 -277.8 -219.2 -301.8C-196.3 -325.7 -152 -326.4 -111.9 -344.3C-71.8 -362.1 -35.9 -397.1 0 -432L0 0Z" fill="#985EFF"></path></g><g transform="translate(0, 0)"><path d="M432 0C439 53.3 446 106.6 410.9 133.5C375.7 160.4 298.3 161 267 194C235.7 226.9 250.4 292.2 229.8 316.3C209.2 340.4 153.3 323.3 109.1 335.7C64.9 348.1 32.4 390.1 0 432L0 0Z" fill="#985EFF"></path></g></svg>